<?xml version="1.0" encoding="utf-8" ?>
<!-- Generator: Adobe Illustrator 20.1.0, SVG Export Plug-In . SVG Version: 6.00 Build 0)  -->
<?xml-stylesheet type="text/css" href="../css/style.css" ?>
    <svg version="1.1" id="Слой_1" xmlns="http://www.w3.org/2000/svg" xmlns:xlink="http://www.w3.org/1999/xlink" x="0px" y="0px" viewBox="0 0 713 891.3" style="enable-background:new 0 0 713 891.3;" xml:space="preserve">
        <g>
            <g>
                <path d="M597.7,2.3H131.3c-15.8,0-28.6,12.8-28.6,28.6v806.7c0,15.8,12.8,28.6,28.6,28.6v23.8h466.4v-23.8
                            c15.8,0,28.6-12.8,28.6-28.6V30.8C626.3,15,613.5,2.3,597.7,2.3z M159.8,59.4h409.3V809H159.8V59.4z M582.7,874.9H146.2v-8.9
                            h436.5V874.9z" />
                <path d="M202.1,212.9c-11.8,0-21.4,9.6-21.4,21.4v453.3c0,11.8,9.6,21.4,21.4,21.4s21.4-9.6,21.4-21.4V234.3
                            C223.5,222.4,213.9,212.9,202.1,212.9z" />
            </g>
        </g>
    </svg>
