<?xml version="1.0" encoding="iso-8859-1"?>
<!-- Generator: Adobe Illustrator 16.0.0, SVG Export Plug-In . SVG Version: 6.00 Build 0)  -->
<!DOCTYPE svg PUBLIC "-//W3C//DTD SVG 1.1//EN" "http://www.w3.org/Graphics/SVG/1.1/DTD/svg11.dtd">
<svg version="1.1" id="Capa_1" xmlns="http://www.w3.org/2000/svg" xmlns:xlink="http://www.w3.org/1999/xlink" x="0px" y="0px"
	 width="481.239px" height="481.239px" viewBox="0 0 481.239 481.239" style="enable-background:new 0 0 481.239 481.239;"
	 xml:space="preserve">
<g>
	<g id="Layer_8_27_">
		<path d="M96.383,321.014v0.736c0,25.327,20.525,45.847,45.848,45.847h76.418c25.322,0,45.851-20.52,45.851-45.847V218.204H96.383
			v2.191c-20.339,1.284-36.515,18.189-36.515,38.858v22.916C59.869,302.825,76.044,319.729,96.383,321.014z M111.916,245.167
			c0-2.657,2.159-4.796,4.794-4.796c2.659,0,4.802,2.147,4.802,4.796v60.926c0.026,3.02,1.17,29.745,33.609,29.745
			c2.653,0,4.802,2.156,4.802,4.794c0,2.67-2.154,4.805-4.802,4.805c-42.721,0-43.21-38.95-43.21-39.344L111.916,245.167
			L111.916,245.167z M73.612,259.24c0-13.088,10.013-23.857,22.766-25.097v73.114c-12.753-1.242-22.766-12.022-22.766-25.101V259.24
			z M392.565,420.413v-38.129h-0.35c0.229-2.188,0.35-4.433,0.35-6.687V64.022C392.565,28.648,363.897,0,328.543,0H147.139
			c-35.357,0-64.022,28.648-64.022,64.022v19.253c8.455-7.946,19.801-12.849,32.322-12.849h24.2
			c5.764,14.138,16.996,25.467,31.085,31.333l11.201,12.938h20.162l13.442-13.261c13.746-5.946,24.67-17.12,30.333-31.005h3.417
			c26.083,0,47.243,21.141,47.243,47.237v229.912c0,13.745-5.915,26.09-15.283,34.714H83.475v38.129H59.869v60.815H421.37v-60.826
			H392.565z M276.485,459.467h-24.003v-27.212h24.003V459.467z M335.745,459.467h-24.012v-27.212h24.012V459.467z"/>
	</g>
</g>
<g>
</g>
<g>
</g>
<g>
</g>
<g>
</g>
<g>
</g>
<g>
</g>
<g>
</g>
<g>
</g>
<g>
</g>
<g>
</g>
<g>
</g>
<g>
</g>
<g>
</g>
<g>
</g>
<g>
</g>
</svg>
