<?xml version="1.0" standalone="no"?>
<!DOCTYPE svg PUBLIC "-//W3C//DTD SVG 20010904//EN"
 "http://www.w3.org/TR/2001/REC-SVG-20010904/DTD/svg10.dtd">
<svg version="1.0" xmlns="http://www.w3.org/2000/svg"
 width="768.000000pt" height="768.000000pt" viewBox="0 0 768.000000 768.000000"
 preserveAspectRatio="xMidYMid meet">
<metadata>
Created by potrace 1.10, written by Peter Selinger 2001-2011
</metadata>
<g transform="translate(0.000000,768.000000) scale(0.100000,-0.100000)"
fill="#000000" stroke="none">
<path d="M3313 6652 c-9 -6 -13 -73 -15 -257 l-3 -248 -105 -19 c-58 -10 -130
-23 -160 -29 -30 -6 -75 -15 -100 -19 -79 -13 -313 -74 -400 -105 -19 -7 -51
-18 -70 -24 -19 -7 -48 -17 -65 -21 -41 -12 -95 -33 -122 -48 -12 -7 -26 -12
-32 -12 -17 0 -347 -157 -426 -203 -18 -10 -142 -85 -200 -120 -11 -7 -36 -24
-56 -39 -20 -16 -40 -28 -44 -28 -6 0 -164 -117 -175 -130 -3 -3 -27 -23 -55
-45 -57 -45 -141 -123 -225 -209 -32 -32 -69 -63 -82 -70 l-23 -12 -3 -1589
c-3 -1705 -4 -1648 45 -1820 24 -84 83 -220 126 -290 33 -53 130 -176 178
-224 178 -178 371 -275 659 -333 89 -17 3527 -24 3665 -7 182 23 312 55 393
98 9 5 37 19 62 31 131 61 300 203 401 335 25 33 49 67 52 75 4 8 16 29 26 45
24 37 52 95 76 155 9 25 23 60 31 78 8 18 14 43 14 55 0 12 8 42 18 67 16 42
17 150 15 1684 l-1 1640 -122 120 c-67 67 -142 137 -168 156 -25 19 -54 42
-62 51 -35 33 -211 161 -282 204 -9 5 -54 33 -100 60 -118 71 -110 67 -258
140 -131 65 -158 78 -237 111 -21 9 -51 23 -66 30 -16 8 -35 14 -42 14 -8 0
-29 6 -47 14 -32 14 -75 30 -148 56 -19 6 -51 16 -70 20 -19 4 -48 13 -65 18
-102 36 -521 122 -655 135 l-25 2 -3 250 c-2 184 -6 251 -15 257 -6 4 -239 8
-517 8 -278 0 -511 -4 -517 -8z m916 -126 c8 -9 10 -121 9 -392 l-3 -379 -405
0 -405 0 -3 384 c-2 301 1 386 10 393 7 4 187 8 399 8 315 0 389 -3 398 -14z
m-942 -514 c9 -6 13 -60 15 -192 l3 -185 525 0 525 0 5 190 c6 220 -2 207 114
181 37 -9 79 -16 94 -16 15 0 59 -7 97 -16 109 -25 176 -41 225 -54 25 -6 61
-15 80 -20 105 -27 221 -66 400 -135 143 -56 464 -217 568 -286 24 -16 46 -29
49 -29 3 0 22 -13 43 -30 21 -16 41 -30 44 -30 5 0 146 -99 156 -110 3 -3 34
-28 70 -55 106 -80 213 -182 204 -196 -3 -5 -1067 -9 -2670 -9 -2329 0 -2664
2 -2664 15 0 19 150 156 286 262 47 36 252 176 274 186 8 4 29 16 45 27 74 47
305 165 410 209 44 18 94 39 110 46 17 7 50 21 75 30 25 9 60 23 78 31 18 8
39 14 47 14 8 0 29 6 47 14 18 8 62 22 98 31 36 10 85 23 110 30 25 7 81 20
125 30 44 9 108 23 142 31 34 8 77 14 95 14 18 1 60 7 93 14 33 8 62 14 65 15
3 0 11 -3 17 -7z m3298 -2677 c0 -1477 -1 -1562 -18 -1588 l-17 -27 -2720 0
-2720 0 -17 27 c-17 26 -18 113 -21 1577 -1 853 0 1556 3 1563 3 11 547 13
2757 11 l2753 -3 0 -1560z m-62 -1747 c2 -7 -3 -29 -11 -48 -32 -75 -78 -162
-89 -172 -7 -6 -13 -15 -13 -20 0 -33 -202 -240 -289 -297 -139 -90 -279 -144
-446 -172 -120 -21 -3558 -21 -3690 0 -158 24 -305 81 -446 172 -87 57 -289
264 -289 297 0 5 -6 14 -13 20 -11 10 -53 89 -90 171 -8 19 -13 40 -10 48 7
19 5379 20 5386 1z"/>
<path d="M2071 4106 c-8 -9 -10 -142 -9 -472 l3 -459 1745 0 1745 0 3 459 c1
330 -1 463 -9 472 -17 21 -3461 21 -3478 0z m3358 -120 c8 -9 11 -110 9 -352
l-3 -339 -1625 0 -1625 0 -3 339 c-2 242 1 343 9 352 17 21 3221 21 3238 0z"/>
<path d="M2084 2927 c-2 -7 -3 -56 -2 -108 l3 -94 108 -3 108 -3 -3 108 -3
108 -103 3 c-79 2 -104 0 -108 -11z"/>
<path d="M2444 2927 c-2 -7 -3 -56 -2 -108 l3 -94 108 -3 108 -3 -3 108 -3
108 -103 3 c-79 2 -104 0 -108 -11z"/>
<path d="M2817 2933 c-4 -3 -7 -53 -7 -110 l0 -104 113 3 112 3 3 99 c2 73 -1
102 -10 108 -16 9 -202 11 -211 1z"/>
<path d="M3206 2924 c-10 -26 -7 -79 6 -92 17 -17 2299 -17 2316 0 13 13 16
66 6 92 -6 14 -117 16 -1164 16 -1047 0 -1158 -2 -1164 -16z"/>
<path d="M3211 2706 c-7 -8 -11 -34 -9 -58 l3 -43 1165 0 1165 0 3 43 c2 24
-2 50 -9 58 -10 12 -178 14 -1159 14 -981 0 -1149 -2 -1159 -14z"/>
<path d="M2087 2563 c-10 -9 -8 -195 1 -211 6 -9 35 -12 108 -10 l99 3 3 113
3 112 -104 0 c-57 0 -107 -3 -110 -7z"/>
<path d="M2447 2563 c-10 -9 -8 -195 1 -211 6 -9 35 -12 108 -10 l99 3 3 113
3 112 -104 0 c-57 0 -107 -3 -110 -7z"/>
<path d="M2814 2557 c-2 -7 -3 -58 -2 -113 l3 -99 101 -3 c78 -2 104 1 113 12
8 9 11 47 9 112 l-3 99 -108 3 c-83 2 -109 0 -113 -11z"/>
<path d="M3206 2444 c-10 -26 -7 -79 6 -92 17 -17 2299 -17 2316 0 13 13 16
66 6 92 -6 14 -117 16 -1164 16 -1047 0 -1158 -2 -1164 -16z"/>
</g>
</svg>
