<?xml version="1.0" standalone="no"?>
<!DOCTYPE svg PUBLIC "-//W3C//DTD SVG 20010904//EN"
 "http://www.w3.org/TR/2001/REC-SVG-20010904/DTD/svg10.dtd">
<svg version="1.0" xmlns="http://www.w3.org/2000/svg"
 width="110.000000pt" height="110.000000pt" viewBox="0 0 110.000000 110.000000"
 preserveAspectRatio="xMidYMid meet">
<metadata>
Created by potrace 1.10, written by Peter Selinger 2001-2011
</metadata>
<g transform="translate(0.000000,110.000000) scale(0.050000,-0.050000)"
fill="#000000" stroke="none">
<path d="M930 2171 c-214 -79 -269 -260 -133 -439 100 -130 123 -177 123 -243
0 -43 7 -51 35 -40 125 49 244 35 354 -40 88 -59 97 -55 162 74 215 423 -116
844 -541 688z"/>
<path d="M293 1532 c-108 -40 -169 -103 -236 -242 -173 -363 126 -731 404
-499 108 90 183 129 249 129 46 0 51 6 36 45 -37 102 -17 267 42 344 67 88 57
105 -103 177 -148 66 -291 83 -392 46z"/>
<path d="M1739 1409 c-109 -91 -183 -129 -250 -129 -43 0 -51 -7 -40 -35 49
-125 35 -244 -40 -354 -59 -87 -55 -97 69 -160 319 -162 589 -74 691 225 121
355 -175 666 -430 453z"/>
<path d="M969 1392 c-82 -36 -164 -138 -180 -223 -60 -315 309 -516 533 -291
249 248 -31 654 -353 514z"/>
<path d="M743 738 c-173 -302 -112 -549 166 -681 364 -172 733 126 500 404
-91 109 -129 183 -129 250 0 43 -7 51 -35 40 -125 -48 -244 -35 -354 40 -92
62 -80 66 -148 -53z"/>
</g>
</svg>
