<?xml version="1.0" encoding="utf-8"?>
<?xml-stylesheet href="../css/device-air-conditioner.css"?>
<!-- Generator: Adobe Illustrator 19.0.1, SVG Export Plug-In . SVG Version: 6.00 Build 0)  -->
<svg version="1.1" id="Layer_1" xmlns="http://www.w3.org/2000/svg" xmlns:xlink="http://www.w3.org/1999/xlink" x="0px" y="0px"
	 viewBox="0 0 1038 700" style="enable-background:new 0 0 1038 700;" xml:space="preserve">
<path class="st0" d="M987.1,688.3H50.9c-21.7,0-39.3-17.6-39.3-39.3V51c0-21.7,17.6-39.3,39.3-39.3h936.3
	c21.7,0,39.3,17.6,39.3,39.3v598C1026.4,670.7,1008.8,688.3,987.1,688.3z"/>
<g>
	<path class="st0" d="M268.1,571.8L268.1,571.8c-122.5,0-221.8-99.3-221.8-221.7v0c0-122.5,99.3-221.7,221.7-221.7h0
		c122.5,0,221.7,99.3,221.7,221.7v0C489.8,472.5,390.6,571.8,268.1,571.8z"/>
	<g id="blade">
		<path class="st1" d="M275.4,138.6c6.6,0,13.2,0,19.8,0c1.3,0.3,2.7,0.6,4,0.8c14.5,1.8,28.2,6.1,40.6,14
			c7.3,4.7,13.6,10.3,17.4,18.3c8.5,17.7,6,41.3-10.9,55.7c-11,9.5-21.6,19.6-31.6,30.2c-7.6,7.9-12.5,17.6-14.7,28.6
			c-1.1,5.7,0,9,5.2,12.5c5.7,3.8,10.1,9.6,15,14.6c0.8,0.8,1.5,1.9,2.3,3c12-10.8,25.4-18.8,40.2-24.5c19.4-7.6,39.6-11.7,60.2-7.3
			c29.2,6.2,46.1,25.7,54,53.7c1.7,6,2.3,12.4,3.4,18.6c0,6.6,0,13.2,0,19.8c-0.3,1.3-0.6,2.7-0.8,4c-2,16.1-7,31.1-16.6,44.3
			c-16.6,22.9-50.7,25-69.9,4.2c-5.3-5.8-10.4-11.8-15.6-17.6c-7.9-8.7-16.2-16.9-26.3-23c-7.3-4.4-15.1-7.3-23.7-7.6
			c-1.5,0-3.4,1.2-4.5,2.4c-4.8,5.1-9.3,10.4-14.1,15.5c-1.7,1.9-3.9,3.3-6.1,5.1c10.8,12.1,18.8,25.5,24.6,40.2
			c7.6,19.4,11.4,39.5,7.4,60.2c-5.3,27.6-28.4,49.3-57.3,54.9c-5,0.9-10,1.7-15,2.5c-6.6,0-13.2,0-19.8,0c-1.3-0.3-2.6-0.6-4-0.8
			c-15.5-1.9-29.8-7-43-15.5c-24.7-15.8-26.2-54.1-4.8-71.8c3.4-2.8,6.8-5.6,9.9-8.7c8.6-8.6,17.6-17,25.5-26.3c7-8.1,11-18,12-28.9
			c0.3-2.7-0.3-4.5-2.9-6c-7.3-4.3-13.3-10.2-18.2-17.1c-0.6-0.8-1.3-1.6-2-2.5c-12.1,10.8-25.5,18.8-40.2,24.5
			c-19.3,7.5-39.3,11.6-59.8,7.3c-29.4-6.1-46.4-25.6-54.3-53.8c-1.7-6-2.3-12.4-3.4-18.5c0-6.6,0-13.2,0-19.8
			c0.3-1.5,0.6-2.9,0.8-4.4c2-15.5,6.6-30.1,15.9-42.8c3.5-4.7,7.7-9.2,12.5-12.4c16.9-11.2,43.5-9.9,58.7,7.6
			c8.3,9.5,16.8,18.9,25.8,27.9c9,8.9,19.3,15.9,31.9,18.8c6.2,1.4,11.9,2.1,14.8-5.5c0.6-1.5,1.9-2.8,3-3.9
			c4.5-4.3,9.1-8.6,13.8-13c-0.6-0.7-1.3-1.5-2-2.3c-18.9-23.1-29.9-49.2-30.9-79.2c-1.2-33.6,17.8-60.8,50-70.9
			C259.3,141.2,267.4,140.2,275.4,138.6z M268.7,400.5c27.9,0,50.4-22.4,50.5-50.3c0.1-28.1-22.4-50.7-50.5-50.7
			c-27.9,0-50.4,22.4-50.5,50.3C218.2,378,240.7,400.5,268.7,400.5z"/>
		<path class="st1" d="M268.7,400.5c-28.1,0-50.5-22.6-50.5-50.7c0.1-27.9,22.6-50.3,50.5-50.3c28.1,0,50.6,22.5,50.5,50.7
			C319.1,378.1,296.6,400.5,268.7,400.5z M297.2,349.9c-0.1-15.8-13.1-28.6-28.7-28.4c-15.9,0.3-28.5,13.1-28.3,28.9
			c0.2,15.6,12.9,28.2,28.6,28.2C284.6,378.5,297.3,365.7,297.2,349.9z"/>
		<path class="st1" d="M297.2,349.9c0.1,15.8-12.7,28.6-28.5,28.6c-15.6,0-28.4-12.6-28.6-28.2c-0.2-15.8,12.4-28.6,28.3-28.9
			C284.1,321.3,297.1,334.1,297.2,349.9z"/>
	</g>
</g>
</svg>
