<svg xmlns="http://www.w3.org/2000/svg" xmlns:xlink="http://www.w3.org/1999/xlink" version="1.1" x="0px" y="0px" viewBox="0 0 1280 1000" enable-background="new 0 0 1280 800" xml:space="preserve"><g><g><path fill="#000000" d="M826.4,312.8h-20V83.2c0-16-12.8-28-28-28h-33.6h-288c-4.8,0-8.8,4-8.8,8.8v686.4c0,4.8,4,8.8,8.8,8.8h288    h33.6c16,0,28-12.8,28-28V497.6h20c2.4,0,4-1.6,4-4V316.8C830.4,314.4,828.8,312.8,826.4,312.8z M456,63.2    C456,63.2,456.8,63.2,456,63.2h284v109.6h-36c4-1.6,6.4-5.6,6.4-11.2V120c0-6.4-5.6-12-12-12H684c-6.4,0-12,5.6-12,12v41.6    c0,4.8,3.2,8.8,7.2,11.2h-24c6.7-2.7,7.2-5.3,7.2-11.2V124c0-3.2-0.8-6.4-3.2-9.6l0,0l-0.8-1.6c-0.8-2.4-1.6-3.2-1.6-5.6v-16    c0-6.4-5.6-12-12-12h-3.2c-6.4,0-12,5.6-12,12v16c0,1.6-0.8,3.2-1.6,5.6l-0.8,1.6l0,0c-2.4,3.2-3.2,6.4-3.2,9.6v37.6    c0,4.8,3.2,8.8,7.2,11.2h-24c4-1.6,7.2-5.6,7.2-11.2V120c0-6.4-5.6-12-12-12H588c-6.4,0-12,5.6-12,12v41.6c0,4.8,3.2,8.8,7.2,11.2    h-24c4-1.6,6.4-5.6,6.4-11.2V120c0-6.4-5.6-12-12-12h-14.4c-6.4,0-12,5.6-12,12v41.6c0,4.8,3.2,8.8,7.2,11.2H456V63.2L456,63.2z     M456,642.4v-5.6h284.8v5.6H456z M556,621.6c-9.6,0-17.6-8-17.6-17.6v-1.6h71.2v1.6c0,9.6-8,17.6-17.6,17.6H556z M596.8,628.8    c11.2-2.4,20-12.8,20-25.6v-6.4c0-2.4-1.6-4-4-4h-79.2c-2.4,0-4,1.6-4,4v6.4c0,12,8.8,22.4,20,25.6H456v-108h284.8v108H596.8z     M651.2,506.4c-16,0-29.6-12-32-28H700c-2.4,16-15.2,28-32,28H651.2z M680.8,512.8c16-5.6,28-20,28-38.4c0-2.4-1.6-4-4-4h-89.6    c-2.4,0-4,1.6-4,4c0,17.6,12,32.8,28,38.4H456v-104h284.8V512h-60V512.8z M586.4,400.8c4-1.6,7.2-4,10.4-7.2    c8-7.2,12-17.6,12-28.8l0,0v-35.2c0-2.4-1.6-4-4-4H532c-2.4,0-4,1.6-4,4v35.2c0,16,8.8,29.6,22.4,36H456v-108h284.8v108H586.4z     M568.8,396.8c-17.6,0-32-14.4-32-32v-31.2h64.8v31.2C600.8,382.4,586.4,396.8,568.8,396.8z M456,284.8v-104h284.8V284H456V284.8z     M534.4,162.4v-41.6c0-1.6,1.6-4,4-4h14.4c1.6,0,4,1.6,4,4v41.6c0,2.4-1.6,4-4,4h-14.4C536,165.6,534.4,164,534.4,162.4z     M583.2,162.4v-41.6c0-1.6,1.6-4,4-4h14.4c1.6,0,4,1.6,4,4v41.6c0,2.4-1.6,4-4,4h-14.4C584.8,165.6,583.2,164,583.2,162.4z     M652.2,118.4L652.2,118.4l0.8,1.6c0.8,2.4,1.6,3.2,1.6,5.6v37.6c0,1.6-1.6,4-4,4h-14.4c-1.6,0-4-1.6-4-4v-37.6    c0-1.6,0.8-3.2,1.6-5.6l0.8-1.6l0,0c2.4-3.2,3.2-6.4,3.2-9.6v-16c0-1.6,1.6-4,4-4h3.2c1.6,0,4,1.6,4,4v16    C649.8,112,650.6,115.2,652.2,118.4z M680.8,162.4v-41.6c0-1.6,1.6-4,4-4h14.4c1.6,0,4,1.6,4,4v41.6c0,2.4-1.6,4-4,4h-14.4    C682.4,165.6,680.8,164,680.8,162.4z M456,750.4L456,750.4v-100h138.4v100H456C456.8,750.4,456,750.4,456,750.4z M602.4,750.4    v-99.2H740v100H602.4V750.4z M798.4,730.4c0,11.2-8.8,20-20,20h-29.6v-688h29.6c11.2,0,20,8.8,20,20V730.4z M822.4,489.6h-15.2    V320.8h15.2V489.6z"/><rect x="515.2" y="661.6" fill="#000000" width="28" height="8"/><rect x="664" y="661.6" fill="#000000" width="28" height="8"/><path fill="#000000" d="M704.8,216h-89.6c-2.4,0-4,1.6-4,4v24c0,22.4,18.4,40,40,40h17.6c22.4,0,40-18.4,40-40v-24    C708.8,217.6,707.2,216,704.8,216z M700.8,244c0,17.6-14.4,32-32,32h-17.6c-17.6,0-32-14.4-32-32v-20h81.6V244z"/></g></g><text x="0" y="815" fill="#000000" font-size="5px" font-weight="bold" font-family="'Helvetica Neue', Helvetica, Arial-Unicode, Arial, Sans-serif">Created by nils bellemans</text><text x="0" y="820" fill="#000000" font-size="5px" font-weight="bold" font-family="'Helvetica Neue', Helvetica, Arial-Unicode, Arial, Sans-serif">from the Noun Project</text></svg>