<?xml version="1.0"?>
<svg version="1.1" id="Слой_1" xmlns="http://www.w3.org/2000/svg" xmlns:xlink="http://www.w3.org/1999/xlink" x="0px" y="0px" viewBox="0 0 206.2 209.8" style="enable-background:new 0 0 206.2 209.8;" xml:space="preserve" class="svg-main">
    <style type="text/css">
    .st0 {
        fill: #FEFEFE;
    }
    
    .st1 {
        fill: #8B8B8B;
    }
    
    .st2 {
        fill: #010101;
    }
    
    .st3 {
        fill: #0E0E0E;
    }
    
    .st4 {
        fill: #979797;
    }
    
    .st5 {
        fill: #9B9B9B;
    }
    
    .st6 {
        fill: #8C8C8C;
    }
    
    .st7 {
        fill: #898989;
    }
    
    .st8 {
        fill: #999999;
    }
    
    .st9 {
        fill: #000!important;
    }
    </style>
    <g>
        <g>
            <path class="st1" d="M102.7,0.5c0-0.1,0-0.2,0-0.2c0.4,0,0.8,0,1.2,0c0,0.1,0,0.1,0,0.2C103.5,0.8,103.1,0.8,102.7,0.5z" />
            <path d="M102.7,0.5c0.4,0,0.8,0,1.2,0c1.1,0.5,2,1.4,2.5,2.5c2.6,5,6.8,8.6,10.7,12.5c25.7,25.8,51.4,51.5,77.2,77.2
                    c1.4,1.4,3,2.5,4.6,3.7c1.2,0.8,2.4,1.7,3.6,2.6c1.8,1.4,2.4,3.2,1.9,5.5c-2.2,8.9-2.3,17.9,0.1,26.8c0.5,1.9-0.5,3.2-1.2,4.7
                    c-0.1,0.3-0.4,0.2-0.6,0.1c-1.8-0.5-3.5-1.1-4.8-2.7c-4.3-5.1-8.5-10.3-12.7-15.5c-0.3-0.3-0.4-1-1-0.7c-0.7,0.3-1.4,0.4-1.5,1.4
                    c-0.1,1.3-0.4,2.5-0.3,3.8c0,22.9,0,45.8,0,68.8c0,3.6-1.1,6.5-3.7,8.9c-1.8,1.7-3.4,3.5-5.3,5.1c-1.6,1.4-3.4,2.2-5.5,2.3
                    c-1.6,0-3.1,0.1-4.7,0.1c-39.9,0-79.7,0-119.6,0c-1.6,0-3.1-0.1-4.7-0.1c-2.3-0.1-4.2-0.9-5.9-2.3c-2.2-1.9-4.3-3.9-6.4-5.9
                    c-1.8-1.8-2.7-3.9-2.7-6.4c0.1-6.1,0.1-12.2,0.1-18.4c0-17.8,0-35.7,0-53.5c0-0.7-0.2-1.4-0.2-2.1c-0.1-0.9-0.8-1-1.4-1.3
                    c-0.6-0.3-0.8,0.3-1.1,0.7c-4.4,5.3-8.6,10.6-13.1,15.8c-0.9,1.1-1.9,1.9-3.3,2.3c-0.9,0.3-1.5,0.1-2.1-0.6
                    c-1.3-1.5-1.4-2.3-0.6-4.1c0.8-1.8,1.3-3.6,1.4-5.5c0.1-5.2-0.2-10.4-0.5-15.6c-0.2-2.2-0.9-4.3-1.2-6.5c-0.3-1.9,0.2-3.5,1.7-4.8
                    c5.1-4.4,10.6-8.3,15.4-13c3.5-3.5,7.1-7.1,10.6-10.6c3.3-3.4,5-7.5,5-12.2c0-11.9,0-23.8,0-35.6c0-1.9-0.6-3.8-1-5.6
                    c-0.3-1.4-0.5-2.8-0.1-4.2c0.2-0.9,0.7-1.4,1.6-1.6c1.9-0.5,3.6,0.3,5.4,0.6c8.3,1.6,16.6,1.5,24.8-0.6c0.5-0.1,1-0.2,1.5-0.2
                    c2.2,0,3.2,0.9,3.1,3.1c-0.1,3.5-0.8,7-1.3,10.5c-0.2,1.3-0.4,2.6-0.6,3.9c0,0.4-0.3,0.9,0.4,1.1c0.5,0.2,0.9,0.5,1.4,0
                    c0.8-0.8,1.8-1.5,2.6-2.3C80.1,24.5,88,16.6,96,8.7c1.2-1.2,2.1-2.7,2.9-4.2C99.8,2.8,100.9,1.2,102.7,0.5z" />
            <path class="st9" d="M103.4,204.9c-19.5,0-39,0-58.6,0c-4.4,0-8.6-0.8-12.2-3.6c-3.9-3.1-5.8-7.2-6.1-12c-0.2-5.3-0.1-10.6-0.1-16
                    c0-16.4,0.1-32.8,0.1-49.2c0-2.5,0.6-4.8,1.1-7.2c0.5-2.4,0.2-4.6-1-6.7c-0.3-0.5-0.4-0.5-0.9-0.3c-1.9,0.8-3.5,1.9-4.9,3.5
                    c-4.1,4.9-8.4,9.8-12.5,14.7c-0.5,0.6-0.9,0.9-1.7,0.4c-1.6-0.9-1.7-0.8-1.4-3.3c0.9-7.6,1.8-15.2,2.9-22.8
                    c0.1-0.6,0.3-1.1,0.7-1.6c8.6-8.4,17-17,25.9-25.1c0.9-0.9,1.9-1.7,2.9-2.5c1.4-1.3,1.6-2.3,0.8-3.9c-0.9-1.8-1.2-3.6-1.2-5.5
                    c0-12.4,0-24.9-0.1-37.3c0-0.5,0-1,0.1-1.6c0.3-2.6,1.7-4.1,4.3-4.2c4.4-0.1,8.7,0,13.1,0c2.1,0,4.2-0.1,6.2,0
                    c3.6,0.2,5.3,2.2,4.8,5.8c-0.5,3.5-1,7-1.5,10.6c-0.2,1.5-0.3,3,0.2,4.5c0.3,0.8,0.8,1.3,1.8,1.3c1.6,0,2.9-0.4,4-1.7
                    c7.1-7.8,14.2-15.6,21.3-23.4c2.8-3,5.7-5.9,8.5-8.8c2.1-2.1,4.1-2,6.5,0.2c2.7,2.5,5.2,5.2,7.8,7.8C128.9,31.5,143.5,46,158,60.6
                    c11.9,11.9,23.7,23.8,35.7,35.6c5,4.9,7.4,10.7,6.8,17.8c-0.4,4.4-0.1,8.9-0.1,13.3c0,0.8-0.2,1.2-0.9,1.6
                    c-0.7,0.4-0.9,0.2-1.4-0.3c-4.1-4.8-8.2-9.6-12.3-14.4c-1.4-1.7-3.1-3.1-5.2-3.9c-0.6-0.2-0.8-0.2-1,0.4c-1.1,2.4-1.5,4.8-0.7,7.3
                    c1.1,3.4,0.7,6.9,0.7,10.4c0.1,19.8,0.1,39.5,0.1,59.3c0,10.2-7.3,17.5-17.5,17.5C142.6,205,123,205,103.4,204.9
                    C103.4,205,103.4,205,103.4,204.9z" />
            <path d="M150.7,122.1c0,1.7-0.4,2.9-1.6,3.9c-2.2,1.9-4.3,3.9-6.3,5.9c-2.2,2.1-4.7,3.1-7.9,2.6c-2.8-0.4-3.9,0.6-4.3,3.3
                    c-0.1,0.5-0.1,1-0.1,1.6c0.1,2.5,0.9,3.5,3.4,3.8c1.5,0.2,3,0.1,4.4,0.5c6.4,1.6,11.4,7.3,12.1,13.9c0.1,1.2,0.3,2.4,0.2,3.6
                    c-0.1,1.1-0.3,2.3-0.5,3.6c-0.6-0.8-0.9-1.5-0.7-2.3c0.7-4.3-0.5-7.9-3.4-11.1c-2.9-3.2-6.5-5.4-10.8-6.3
                    c-2.9-0.6-4.3,0.4-4.5,3.4c0,0.1,0,0.2,0,0.2c-0.2,3.9,0.8,5,4.6,5.1c1.8,0,3.6,0.3,5.7,0.8c-1.8,0.6-3.3,0.9-4.8,0.9
                    c-0.6,0-1.3-0.1-1.9-0.1c-2.2,0.1-3.4,1.3-3.5,3.5c-0.1,1.1,0,2.2,0.1,3.4c0.1,3-1.1,4.2-4.1,4.1c-2.1,0-3.9,0.5-5.6,1.7
                    c-0.8,0.5-1.1,1.2-1,2.1c0.2,3.4,0.4,3.6,3.7,3.8c3.9,0.3,7.2-0.9,9.8-3.9c1.7-1.9,3.1-4.1,5.4-5.4c0.4-0.3,0.7-0.4,1.1,0
                    c0.4,0.4,0.5,0.7,0,1.1c-2,1.8-3.7,3.8-5.5,5.8c-3.6,4.1-8.3,5.4-13.6,4.4c-2.3-0.4-3.1-1.5-2.8-3.8c0.1-1,0.2-1.9,0.1-2.9
                    c-0.2-1.8-1.1-2.8-2.9-3.2c-0.9-0.2-1.7-0.2-2.6-0.2c-6.2,0.4-12.4,0.4-18.6,0c-1-0.1-1.9-0.1-2.9,0c-1.9,0.2-2.9,1.4-3.1,3.2
                    c-0.1,0.9,0,1.8,0.2,2.6c0.4,2.8-0.9,4.3-3.7,4.2c-5.2-0.2-10.3-0.1-15.5,0c-2.5,0-3.5-1-3.4-3.5c0-1.5-0.1-3-0.3-4.5
                    c-0.2-1.4-0.2-2.8,1-3.9c1.1,0.7,1.8,1.7,1.7,3.2c-0.1,1.5-0.1,3-0.1,4.4c0,1.1,0.5,1.7,1.5,2c0.7,0.2,1.5,0.4,2.2,0.4
                    c3.8,0.1,7.7,0.2,11.5,0.2c2.1,0,3-0.9,3.4-3c0.2-1,0.1-1.9-0.1-2.9c-0.3-1.7-1.4-2.5-3.2-2.5c-1.2,0-2.4,0.3-3.6,0.3
                    c-2.1-0.1-3.3-1.1-3.8-3.2c-0.2-1-0.3-2-0.2-3c0.2-14.4,0.2-28.9,0.1-43.3c-0.1-4.3,1.1-5.4,5.4-5.2c4.8,0.2,9.6,0.1,14.4,0.1
                    c1.1,0,1.5-0.2,1.5-1.4c0-7.8,0.2-15.7-0.2-23.5c0-1,0-1.9,0.2-2.9c0.4-2,1.6-3.1,3.6-3.1c2.6,0,5.3,0.3,7.9,0
                    c0.8-0.1,0.6,0.5,0.7,0.9c0.1,0.6-0.1,0.9-0.8,0.9c-2.7,0-5.4,0-8.2,0c-0.9,0-1.1,0.2-1.1,1.1c0,8.8,0,17.7,0,26.5
                    c0,0.7,0.1,1.1,1,1c2.2-0.1,4.3,0,6.5,0c0.6,0,0.9-0.1,0.9-0.8c-0.1-4.6,0.1-9.1-0.1-13.7c-0.2-3,0.6-5.8,2.8-7.9
                    c2.1-2,4-4.2,5.9-6.5c1-1.2,2.2-1.7,3.7-1.7c0,1.5-0.3,2.6-1.8,3.4c-5.6,3.2-8.3,8.2-8.7,14.5c-0.3,4.1,0.1,8.1,0.4,12.2
                    c0.1,0.9,0.6,0.7,1,0.7c4.4,0,8.8,0.2,13.2,0c1-0.1,2.1-0.1,3.1,0c2.3,0.1,3.5,1.4,3.6,3.7c0,1.8,0.1,3.5,0.7,5.2
                    c0.4,1.1,0.9,1.7,2.2,1.8c3.2,0.2,5.8-0.6,8.5-2.5c5.4-3.8,7.7-8.9,7.6-15.4c0-3.4-0.3-6.9-0.9-10.3c-0.3-1.7-1.1-3.1-2.3-4.3
                    c-1.1-1.1-2.3-2.3-3.5-3.3c-3.7-3-4.5-7.1-4.3-11.5c0.1-1.8,0.5-3.6,1.6-5.2c0.5,1.4,0.6,2.9,0.3,4.5c-0.2,1.3-0.3,2.7-0.2,4.1
                    c0.2,2.7,1.4,4.9,3.6,6.5c5.6,3.9,8,9.3,7,16.1c-0.3,2.2-0.2,4.3-0.1,6.5c0.1,1.6,0,3.2-0.3,4.8c-0.3,1.5-0.9,2.9-2.1,4
                    c-2.5,2.3-4.9,4.8-7.7,6.7c-2.1,1.5-4.5,2.1-7,1.9c-0.9-0.1-1.4,0.3-1.9,1c-1.6,2.5-1.6,4.2,0.1,6.2c0.5,0.6,1,0.9,1.8,0.7
                    c1-0.3,2.1-0.4,3.2-0.6c2.7-0.5,4.9-1.7,6.9-3.6c1.8-1.8,3.5-3.6,5.5-5.2C149.8,122.7,150.2,122.5,150.7,122.1z" />
            <path d="M88.6,66.2c1.2-1,2.2-2.1,2.7-3.4c1-2.4,0.3-4.9-1.8-6.4c-0.7-0.5-0.7-0.8-0.3-1.5c1.7-3.5,4.6-5.4,8.4-5.7
                    c4.3-0.3,8.6-0.1,12.8,0.3c3.3,0.3,5.7,2.8,6.2,6c0.1,0.5,0,0.7-0.4,1c-0.7,0.5-1.4,1-2.2,1.7c1.8,0.9,3.5,1.7,5.2,2.6
                    c4.4,2.2,7.9,5.3,9.6,10c1.2,3.3,1.4,6.7,1.3,10.2c-0.1,3-0.2,6.1-0.3,9.1c-0.1,1.6-0.7,2.4-2.3,2.4c-2.7,0.1-5.4,0.3-8.1,0.5
                    c-0.7,0-0.9-0.1-0.9-0.8c0-0.7,0.1-1,0.9-1c2.3,0.1,4.6,0,7,0c0.5,0,0.8,0,0.9-0.6c2.3-8,2-15.6-3-22.6c-0.9-1.2-2-2.3-3-3.4
                    c-1.7-1.7-3.7-2.5-6-2.6c-0.3,0-0.6-0.2-0.6,0.3c0,0.5-0.6,1,0,1.5c0.1,0.1,0.3,0.2,0.4,0.3c2.2,1.5,2.1,1.5,0.8,3.7
                    c-1.7,2.8-4,4.3-7.4,4.3c-4.1-0.1-8.2-0.2-12.3,0c-3,0.1-4.3-1-4.8-4c-0.1-0.6-0.4-0.9-0.9-1.1C89.8,66.7,89.3,66.5,88.6,66.2z" />
            <path d="M88.6,30c1.7-2.8,2.9-5.9,5.4-8.1c5.8-5.3,12.2-5.5,18-0.2c3.7,3.4,7.1,7,10.6,10.6c4.7,4.7,9.4,9.4,14.1,14
                    c1.6,1.6,3,3.4,3.5,5.8c0.2,0.9,0.2,1.8,0.1,2.7c-0.6,3.3,0.6,6,3,8.3c2.6,2.6,5.3,5.1,7.9,7.7c2.7,2.6,5.3,5.3,8,8
                    c0.8,0.8,1.4,1.8,1.7,2.9c-0.4,0.2-0.5,0-0.6-0.2c-6.6-6.2-13.2-12.3-19.7-18.6c-1.5-1.5-2.2-3.1-1.9-5c0.7-5-1.3-8.7-4.8-12
                    c-7.6-7.1-14.8-14.6-22.1-22c-1.8-1.8-3.9-3.3-6.4-4c-3.7-0.9-6.8,0.4-9.6,2.8c-1.9,1.6-3.4,3.5-5,5.3
                    C90.1,28.8,89.6,29.6,88.6,30z" />
            <path d="M74.2,133c-2.9,1.1-5.6,1.7-8.4,0c-4.8-2.8-8.7-6.4-10-12c-0.8-3.4-0.7-6.9-0.5-10.4c0.2-2.6,0.4-5.3,0.6-7.9
                    c0.1-1.6,0.9-2.7,2-3.7c1.5-1.5,3.1-2.8,4.6-4.2c1.6-1.5,2.9-3.3,3.4-5.5c0.2-1,0.3-1.9,0.1-2.9c-0.7-3.6,0.7-6.3,3.1-8.7
                    c2.4-2.3,4.8-4.7,7.2-7.1c2.7-2.7,5.5-5.4,8.2-8.1c1.4-1.5,3.3-2,5.1-2.8c0.1-0.1,0.4-0.1,0.4,0c0.1,0.2,0.2,0.5,0.1,0.7
                    c-0.1,0.5-0.6,0.7-0.9,0.9c-4.1,3.3-8,6.9-11.6,10.7c-1.3,1.4-2.8,2.8-4.3,4c-3.9,3.4-6,7.6-5.9,12.9c0.1,3.3-1.9,5.7-4.4,7.6
                    c-3.3,2.5-5.4,5.7-5.9,9.9c-0.3,2.4-0.2,4.8,0,7.2c0.2,2.7,0.6,5.4,0.6,8.1c0,1.4,0.7,2.5,1.6,3.4c3.5,3.7,7.6,6.4,12.7,7.3
                    C72.6,132.7,73.3,132.9,74.2,133z" />
            <path d="M57.4,92.5c0,0.9-0.7,1.1-1.3,1.5c-4.3,3-7.9,6.6-9.1,12c-0.4,1.9-0.3,3.9-0.1,5.8c0.9,8.1,0.4,16.1,0.1,24.2
                    c-0.1,1.6-0.2,3.1,0,4.7c0.3,2.7,1.6,4.7,3.7,6.3c3.1,2.2,5.3,5,6.3,8.8c0.4,1.6,0.8,3.3,0.5,5c-0.5,3.8-0.3,7.5-0.2,11.3
                    c0,1.1-0.3,2.2-0.7,3.3c-0.1,0.3-0.1,0.6-0.5,0.5c-0.4-0.1-0.7-0.2-0.7-0.7c0-0.2,0-0.5,0-0.7c0-4.6-0.2-9.2,0.2-13.8
                    c0.3-4.5-1.3-8.1-5-10.8c-4.1-3-5.9-7.3-5.6-12.2c0.4-10.3,0.1-20.5,0.1-30.8c0-5.5,5.5-12.7,10.8-14.1
                    C56.4,92.6,56.9,92.4,57.4,92.5z" />
            <path d="M98.4,166.8c0.3,2.1,0.3,4.2-0.2,6.2c-1.7,7.8-8,13-16.2,13.2c-7.5,0.1-15,0-22.6,0c-1.1,0-2.2-0.4-3.2-0.9
                    c-3.9-1.9-7.1-4.7-9.6-8.3c-1-1.5-1.5-3.1-1.3-5c0.4-3.9-0.8-7.2-3.3-10.2c-1.6-1.8-3.4-3.4-5.1-5c-0.7-0.7-1.4-1.4-2.1-2.1
                    c-0.5-0.5-0.6-0.9-0.1-1.5c0.6-0.6,1-0.2,1.4,0.1c2.8,2.6,5.6,5.3,8.1,8.3c2.3,2.7,3,6,2.7,9.5c-0.1,1.5,0.2,2.8,0.9,4
                    c2.3,3.7,5.4,6.5,9.2,8.5c1.1,0.6,2.2,0.8,3.5,0.8c7.4,0,14.7,0,22.1,0c1.9,0,3.5-0.5,5.1-1.4c3.5-2.1,6.2-5,8.1-8.6
                    c0.6-1.1,1-2.3,1.1-3.5C97.1,169.5,97.8,168.2,98.4,166.8z" />
            <path d="M179.5,91.9c4.4,2.4,8.7,4.7,11.3,9.2c2.3,4,1.8,8.2,0.3,12.8c-0.8-0.9-1.4-1.7-2.1-2.4c-5.1-5-10.2-10-15.3-15.1
                    c-0.4-0.4-0.7-0.9-1.5-0.5c-0.7,0.3-0.5,0.9-0.5,1.3c0,7.4,0,14.8,0,22.2c0,1.2-0.1,2.4-0.3,3.6c-0.1,0.5-0.2,0.7-0.7,0.7
                    c-0.5,0-0.7-0.2-0.8-0.7c-0.1-1.1-0.2-2.1-0.2-3.2c0-9,0.1-18,0.1-27c0-0.8,0.3-1.2,1-1.6c0.7-0.4,0.9,0.3,1.2,0.6
                    c5.7,5.6,11.4,11.2,17.1,16.9c0.2,0.2,0.3,0.5,0.6,0.9c1.1-2.6,1.3-4.9,0.1-7.2c-0.5-1-1.2-1.8-1.9-2.6
                    C185,97.2,182.1,94.7,179.5,91.9z" />
            <path d="M98.5,39.1c3,0,5.5,0,7.9,0c0.7,0,0.9,0.2,0.9,0.9c0,0.8-0.3,0.9-1,0.9c-4.3,0-8.6-0.2-12.9,0.1c-6.4,0.5-11.4,3.3-14,9.6
                    c-0.9,2.3-1.3,4.7-1.5,7.1c-0.1,2.3-1,4.2-2.6,5.9c-4.7,5-9.6,9.9-14.6,14.6c-1.3,1.2-2.9,2.1-4.4,3.1c-0.4,0.2-0.8,0.4-1,0.8
                    c-0.1,0.1,0.1,0.5-0.3,0.4c-0.2-0.1-0.4-0.2-0.4-0.5c0.1-0.8,0.2-1.4,0.8-2c5.5-5.3,10.8-10.7,16.6-15.7c2.8-2.4,4.3-5.4,4.1-9.1
                    c-0.1-2.6,0.6-5,2-7.2c2.9-4.6,6.8-7.9,12.3-8.8C93.4,38.8,96.3,39.2,98.5,39.1z" />
            <path d="M160.4,133.5c-2.6,0.5-5.2,1.1-7.8,1.6c-1,0.2-1.5,0.7-1.5,1.7c-0.1,2.5,0.3,5,0.6,7.5c0.1,0.5,0.4,0.6,0.8,0.8
                    c6,3.7,8.6,9.2,8.9,16c0.1,4.4-0.2,8.9-0.5,13.3c-0.1,1.9-1.1,3.4-2.3,4.8c-3.8,4.1-8.5,6.5-14,6.9c-0.9,0.1-1.7-0.1-2.7-0.2
                    c0.2-0.6,0.7-0.6,1.1-0.7c2.6-1,5.3-1.9,7.9-3.1c5.9-2.8,8.9-7.4,9-13.9c0-3.4-0.4-6.7-0.6-10c0-0.3-0.1-0.6-0.1-0.8
                    c0.4-3.1-1.3-5.1-3.5-6.8c-0.7-0.5-1.4-1.1-2.1-1.6c-3-2.1-4.5-5.1-4.6-8.8c0-1.6,0-3.1,0.2-4.7c0.2-1.3,1.3-2.6,2.6-2.8
                    C154.6,132.2,157.5,132.4,160.4,133.5z" />
            <path d="M45.9,88.8c-0.5-2.2-0.9-4.3-0.4-6.5c0.5-2.1,1.6-3.9,3.4-5c5-3.3,7-8,6.8-13.8c-0.4-10.5-0.2-21-0.1-31.4
                    c0-0.7-0.1-1.1-0.9-1c-2.1,0.1-4.2,0.1-6.4,0c-0.7,0-1,0.2-1,0.9c-0.1,1.8-0.3,3.7-0.5,5.5c0,0.5,0,0.9-0.7,0.8
                    c-0.5-0.1-0.8-0.2-0.8-0.8c0-1.8,0-3.7,0-5.5c0-1.7,0.5-2.3,2.2-2.7c2.6-0.7,5.3-0.4,8-0.1c1.2,0.1,1.6,1.6,1.6,2.7
                    c0.2,2.3,0.1,4.6,0.1,7c0,10-0.1,19.9,0,29.9c0,2.2-0.8,3.9-2.2,5.4c-1.9,2-4.1,3.8-5.9,6c-2.1,2.5-3.3,5.4-3,8.7
                    C46.2,88.8,46.1,88.8,45.9,88.8z" />
            <path d="M25.4,91.2c0.3,1.7-0.2,3-1.5,3.9c-0.1,0.1-0.2,0.2-0.4,0.3c-4.4,2.9-6.5,7.3-8.3,12c-0.2,0.4-0.3,0.8,0.3,1
                    c0.6,0.2,1,1.1,1.7,0.5c0.6-0.5,1.2-1.1,1.7-1.7c5.3-5.1,10.5-10.3,15.7-15.5c0.3-0.3,0.5-0.7,0.9-1.2c0.6,1,0.5,1.9,0.6,2.7
                    c0.4,2.7,0.6,5.5,0.9,8.2c0.1,1.1-0.5,1.6-1.1,2.3c-0.2,0.2-0.4,0.1-0.5,0c-0.8-0.7-1.7-1.3-1.5-2.6c0.2-1.2,0.3-2.5,0.4-3.7
                    c0.1-0.5,0.2-1-0.4-1.3c-0.7-0.3-0.9,0-1.3,0.4c-5.8,5.6-11.5,11.3-17.3,16.9c-0.2,0.2-0.3,0.6-0.6,0.7c-0.7-3.5-1.3-6.9-0.7-10.4
                    c0.3-1.9,1.2-3.6,2.6-4.9c2.3-2.2,4.6-4.3,7-6.4C24.2,92,24.7,91.6,25.4,91.2z" />
            <path d="M87.7,90.2c-0.4-1.9-0.8-3.7-1.5-5.5c-0.6-1.5-1.7-2.3-3.3-2.2c-1.2,0.1-2.4,0.2-3.6,0.3c-0.7,0.1-1,0.5-1,1.2
                    c0.7,5.9-1.8,10.5-6,14.2c-3.8,3.4-4.8,7.5-4.8,12.3c0,2,0,3.9-0.1,5.9c-0.1,0.9-0.1,1.8,0.1,2.6c0.5,2.2,1.7,3.3,3.9,3.5
                    c0.9,0.1,1.7,0,2.9,0c-1.8,1.1-3.4,1.8-5.2,1.8c-1.4,0-2.3-0.7-2.8-2c-0.4-1.1-0.6-2.2-0.5-3.3c0.1-2.7-0.1-5.3-0.2-8
                    c-0.4-6.3,1.8-11.7,6.6-15.7c2.9-2.5,3.7-5.5,3.9-9c0-0.8,0-1.6,0.1-2.4c0.2-1.8,1-2.7,2.8-2.9c2-0.3,4.1-0.3,6.1-0.2
                    c2.5,0.1,3.5,1.4,3.4,3.9c-0.1,1.8-0.2,3.6-0.3,5.4C88,90.1,87.9,90.4,87.7,90.2z" />
            <path d="M122.9,196.7c-7.2,0-14.5,0-21.7,0c-0.6,0-1.3-0.1-1.9-0.2c-0.7,0-0.7-0.5-0.8-1c-0.1-0.7,0.5-0.5,0.8-0.5
                    c3.8-0.5,7.6-0.3,11.4-0.3c9.1-0.2,18.3-0.4,27.4,0.2c2.8,0.2,5.5,0.3,8.2-0.4c4.2-1.1,7.4-3.6,10.2-6.8c0.9-1,1.7-2,2.5-3.1
                    c0.5-0.6,1.1-0.9,1.6-0.5c0.5,0.4,0.8,1.1,0.5,1.8c-0.4,0.8-0.9,1.5-1.5,2.2c-3.5,3.7-7.6,6.4-12.4,8.1c-1,0.3-1.9,0.4-3,0.4
                    c-7.1,0-14.2,0-21.3,0C122.9,196.7,122.9,196.7,122.9,196.7z" />
            <path d="M88.8,195.7c0.2-1.6,0.8-2.8,1.5-3.9c1.5-2.3,3.4-4.2,5.8-5.7c1.7-1.1,3.4-1.6,5.4-1.6c6.8,0,13.7-0.3,20.5,0.2
                    c3.2,0.2,6.3-0.4,8.9-2.4c0.8-0.6,1.6-1.4,2.1-2.3c2.4-4.1,6.2-5.7,10.7-6c2-0.1,4.1-0.2,6.1-0.4c1.1-0.1,1.1,0.9,1.6,1.4
                    c0.2,0.2-0.1,0.3-0.3,0.4c-0.8,0.4-1.6,0.7-2.5,0.5c-4-0.9-7.6,0.1-10.9,2.4c-1.5,1.1-3,2.3-4.2,3.7c-2.4,2.8-5.6,3.9-9.1,4.1
                    c-6.3,0.4-12.5,0.4-18.8-0.1c-5.1-0.4-9.4,1.3-12.6,5.6C91.9,193.2,90.4,194.3,88.8,195.7z" />
            <path d="M170.8,142.9c0.7-5.9-2.1-10.1-5.8-13.9c-1.1-1.1-2.2-2.3-3.4-3.4c-1.4-1.2-1.9-2.8-2-4.6c-0.4-6.9-0.8-13.8,0-20.7
                    c0.6-4.8-1.1-8.9-4.3-12.3c-1.9-2.1-4.2-3.8-6.4-5.6c-0.3-0.3-0.7-0.5-1-0.8c1.7-1.5,3.1-0.8,4.5,0.4c3.8,3.4,6.6,7.5,8.4,12.2
                    c0.3,0.9,0.5,1.9,0.5,2.8c0,6.2,0.3,12.3-0.1,18.5c-0.4,5.4,1.5,9.7,6,12.9c3.9,2.8,4.9,6.9,4.6,11.4
                    C171.6,140.8,171.8,141.9,170.8,142.9z" />
            <path d="M161.9,194.1c0.6-1.3,1.5-2.2,2.4-3.3c0.6-0.7,1.2-1.4,1.8-2.1c3.1-3.3,4.3-7.1,3.6-11.7c-0.9-5.6-0.7-11.2-0.1-16.8
                    c0.4-3.8-0.7-6.7-3.5-9.2c-1.3-1.2-2.6-2.3-3.9-3.5c-1.1-1-1.9-2.2-2.5-3.6c-0.4-0.9,0.4-1,0.8-1.3c0.6-0.5,0.8,0.1,1,0.4
                    c0.6,1.2,1.5,2,2.6,2.8c4.6,3.2,6.9,7.7,7.5,13.2c0.5,3.8,0.2,7.5-0.1,11.3c-0.2,3.4-0.3,6.7,0.1,10.1c0.4,3.5-0.8,6.3-3.3,8.7
                    C166.3,191.1,164.1,192.6,161.9,194.1z" />
            <path d="M97.2,30.7c4-3.2,11-2.7,14.9,1.1c2.2,2.2,4.3,4.5,6.5,6.7c1.4,1.5,2.9,2.9,4.5,4.1c4.5,3.1,6.6,7.6,7.2,12.9
                    c0.1,1.1,0.2,2.2,0.3,3.3c0.1,1.3-0.7,2.6-1.8,3.2c-0.4,0.2-0.5-0.1-0.7-0.2c-0.5-0.2-0.4-0.6-0.3-1c0.3-1.6,0.6-3.1,0.7-4.7
                    c0.3-3.8-1.1-6.9-4-9.3c-4.4-3.6-8.4-7.7-12-12c-3-3.6-6.9-4.9-11.6-4.1C99.7,30.8,98.5,30.8,97.2,30.7z" />
            <path d="M170.9,82.3c-0.8,0-1.4-0.2-2-0.8c-6.7-6.5-13.4-13.1-20.1-19.6c-0.6-0.6-0.5-1-0.1-1.7c0.5-0.8,0.9-0.3,1.4-0.1
                    c1,0.4,1.9,1,2.7,1.8c5.9,5.8,11.9,11.6,17.8,17.3c0.6,0.6,1,1.3,1.2,2.1C171.9,82.2,171.8,82.5,170.9,82.3z" />
            <path d="M47.4,153.6c-5.1-1.5-9.2-4.2-11.4-9.3c-0.9-2.1-1.3-4.4-1.3-6.7c0-7.7,0-15.4,0-23.2c0-0.7,0.1-1,1-1c0.8,0,1,0.3,1,1
                    c-0.1,5.7-0.2,11.4-0.2,17.2c0,3.2,0.2,6.3,0.5,9.5c0.2,1.9,1.2,3.5,2.5,4.8C42.1,148.5,44.4,151.3,47.4,153.6z" />
            <path d="M65.1,197.2c-6,0.5-11-1.5-15.2-5.9c-1.6-1.7-3.3-3.2-5-4.8c-0.5-0.4-0.3-0.7-0.2-1.2c0.2-0.6,0.6-0.4,1-0.3
                    c1.3,0.3,2.2,1,3,2.1c3.5,5.2,8.6,7.7,14.8,8.1c3.8,0.3,7.7-0.5,11.5-0.3c0.8,0,1,0.2,1,1c0,0.6-0.2,0.7-0.8,0.8
                    C71.9,196.8,68.5,197,65.1,197.2z" />
            <path class="st2" d="M34.8,82.6c0.4-1.5,0.6-2.7,2-3.6c4.2-2.8,7.4-6.6,8.5-11.7c0.5-2.3,0.5-4.6,0.1-6.9
                    c-0.4-2.5-0.2-4.9-0.2-7.4c0-0.9,0.6-0.5,1-0.5c0.6-0.1,0.9,0.1,0.8,0.8c0,3.3,0,6.6,0,9.8c0,2-0.1,4.1-0.1,6.1
                    c0,1.2-0.3,2.3-1.1,3.2c-2.5,3.3-5.3,6.3-8.2,9.3C36.9,82.3,35.8,82.3,34.8,82.6z" />
            <path d="M45,194.1c-0.4-0.2-0.8-0.4-1.3-0.6c-5.6-2.4-8.4-6.8-9-12.7c-0.3-3.2-0.2-6.4-0.2-9.6c0-1.4-0.1-2.8-0.2-4.2
                    c-0.1-1.7,0.3-2.4,2.1-3c0.2,4.7,0.4,9.3,0,14c-0.4,4.9,1.3,9,5.2,12.1C43,191.2,44,192.6,45,194.1z" />
            <path d="M55.2,132.5c1.7,1.8,2,4.1,2.1,6.5c0.1,1.3,0.2,2.5,0.5,3.8c0.3,1.4,1,2.6,2.1,3.5c1.7,1.4,3.3,3,5,4.5
                    c2.3,2.1,4.9,3.5,8.2,3.1c-1.8,1.4-5,1.7-6.9,0.6c-0.7-0.4-1.4-0.9-2-1.5c-1.9-1.9-3.8-3.7-5.7-5.5c-2.5-2.3-3.5-5.2-3.1-8.5
                    c0.3-2-0.2-4-0.5-6C54.8,132.7,54.8,132.4,55.2,132.5z" />
            <path d="M139.6,113.4c-1.1-0.1-1.9-0.6-2.5-1.2c-1.3-1.4-2.5-2.8-3.8-4.2c-3-3.3-6.9-4.4-11.2-4.5c-0.9,0-1.5,0.4-1.7,1.2
                    c-0.5,1.4-1,2.8-1.5,4.3c-0.2,0.5-0.3,1-1,0.8c-0.7-0.2-0.3-0.7-0.2-1.1c0.2-1.7,0.4-3.3,0.6-5c0.1-0.9,0.5-1.5,1.5-1.6
                    c2.3-0.3,4.6-0.5,6.9-0.4c2.6,0.2,4.6,1.6,6.4,3.4C135.6,107.6,137.4,110.5,139.6,113.4z" />
            <path class="st2" d="M67,59.2c-2.2-5-0.9-9.3,2.9-13c2.5-2.4,5.2-4.5,7.4-7.1c0.5,2.2,0.3,2.6-1.4,3.8c-4.2,2.9-7.6,6.4-8.6,11.7
                    c-0.3,1.4-0.2,2.8-0.1,4.2C67.3,59,67.5,59.3,67,59.2z" />
            <path class="st2" d="M86.4,110.7c0.2-1.3,0.5-2.4,0.4-3.6c-0.1-2.2-1.2-3.6-3.4-3.9c-1.5-0.3-3.1-0.2-4.7-0.2
                    c-0.3,0-0.9,0.3-0.8-0.3c0.1-0.5,0-1.5,0.9-1.4c2.4,0.1,4.7-0.1,7,0.5c1.8,0.4,2.2,0.9,2.4,2.7c0.1,1.6,0.1,3.2,0.1,4.8
                    C88.3,110.3,87.2,110.2,86.4,110.7z" />
            <path class="st2" d="M138.3,99.7c0.2-1.5,0.4-3.8,0.7-6.1c0-0.2-0.1-0.6,0.3-0.6c0.4,0,0.6,0.2,0.7,0.7c0.4,2.6,0.8,5.1,1.2,7.7
                    c0.2,1.1-0.7,1.6-1.3,2.3c-0.2,0.3-0.4-0.1-0.5-0.2C138.3,102.4,138.2,102.1,138.3,99.7z" />
            <path class="st3" d="M59.1,92.3c-1.8,0.2-1.8,0.2-1.2-1.6C58.4,91.2,58.7,91.7,59.1,92.3z" />
            <path class="st4" d="M45.9,88.8c0.1-0.1,0.2-0.1,0.2-0.2c0.3,0.4,0.3,0.8,0.1,1.3C46,89.5,45.8,89.2,45.9,88.8z" />
            <path class="st5" d="M67,59.2c0.1-0.1,0.1-0.3,0.2-0.4c0.2,0.3,0.3,0.6,0.2,1C67.1,59.7,67,59.5,67,59.2z" />
            <path class="st6" d="M87.7,90.2c0.1-0.1,0.3-0.1,0.4-0.2c0.1,0.3,0.2,0.7-0.1,0.8C87.7,90.8,87.6,90.5,87.7,90.2z" />
            <path class="st7" d="M55.2,132.5c-0.3,0-0.2,0.4-0.3,0.5c-0.2-0.3-0.3-0.5-0.1-0.8C54.9,132.1,55.2,132.2,55.2,132.5z" />
            <path class="st8" d="M86.7,30.6c0.4-0.1,0.8-0.2,0.8-0.2c0.2,0.4-0.1,0.3-0.3,0.3C87,30.7,86.9,30.7,86.7,30.6z" />
            <path class="st9" d="M102.9,163c-6.8,0-13.5,0-20.3,0c-3,0-4.1-1.1-4.1-4.1c0-4.6,0.1-9.3,0.1-13.9c0-8.8,0-17.5-0.1-26.3
                    c0-0.5,0-1,0.1-1.6c0.3-2.1,1.2-3.1,3.4-3.2c3.3-0.1,6.6,0,9.8,0c10.4,0,20.8,0,31.2-0.1c3.9,0,4.9,0.9,4.9,4.8
                    c0,13.2,0,26.3,0,39.5c0,0.3,0,0.6,0,0.8c0,3-1.2,4.1-4.2,4.1c-1.9,0-3.8,0-5.6,0C113,163.1,108,163.1,102.9,163
                    C102.9,163.1,102.9,163,102.9,163z" />
            <path class="st9" d="M103.9,51.4c2.2-0.1,4.3-0.3,6.5,0c1.4,0.2,2.2,0.8,2.2,2.2c0.1,4.4,0.3,8.7-0.2,13.1
                    c-0.2,2.3-1.3,3.2-3.6,3.5c-3.8,0.3-7.5,0.3-11.3,0c-2.4-0.2-3.4-1.1-3.6-3.5c-0.3-3.8-0.3-7.7,0-11.5c0.2-2.5,1.4-3.6,4-3.7
                    C99.9,51.3,101.9,51.4,103.9,51.4z" />
        </g>
    </g>
</svg>
