<?xml-stylesheet type="text/css" href="../css/template.css"?><svg xmlns="http://www.w3.org/2000/svg" viewBox="0 0 183.7 165"><mask id="a"><path class="st1" d="M0 30h180v180H0z"/><path d="M97.1 68.9h.6c.2.1.3.1.5.2 2.6.6 5.1 1.2 7.7 1.8.8.2 1.1.5 1.1 1.4.1 2.9.2 5.7.3 8.6 0 .7.3 1.3 1 1.6.6.3 1.1.6 1.7 1 .7.4 1.3.4 2 0 2.4-1.4 4.8-2.7 7.3-4 .9-.5 1.2-.4 2 .3 1.9 1.9 3.7 3.8 5.6 5.7.7.7.8 1.1.3 2-1.4 2.4-2.8 4.8-4.3 7.2-.4.6-.4 1.2 0 1.9.3.6.7 1.2 1 1.8.4.7.9 1 1.7 1.1 2.7.2 5.5.3 8.2.5 1.2.1 1.4.3 1.6 1.4.3 1.2.5 2.3.8 3.5.3 1.4.7 2.9 1 4.3v.8c-.4.3-.7.7-1.1.9-2.4 1.2-4.8 2.4-7.3 3.6-.6.3-1 .8-1 1.5 0 .8-.1 1.7-.2 2.5s.2 1.4.9 1.9c2.2 1.6 4.4 3.3 6.6 4.9.9.7 1 1 .6 2.1-.8 2.3-1.6 4.5-2.5 6.8-.5 1.3-.7 1.4-2.1 1.3-2.7-.3-5.3-.6-8-.9-.7-.1-1.2.2-1.6.8l-1.8 2.4c-.5.7-.6 1.4-.3 2.1l3 7.8c.3.9.2 1.3-.5 1.8-2 1.5-3.9 3-5.9 4.5-.8.6-1.2.6-1.9 0-2.1-1.7-4.3-3.4-6.4-5.2-.6-.5-1.2-.6-2-.3-1.1.5-2.3.9-3.5 1.3-.7.3-1.1.7-1.2 1.5l-1.8 8.4c-.1.7-.5 1-1.2 1.1-.6.1-1.1.1-1.7.2-1.2.1-2.4.3-3.6.4h-2.8c-.5-.3-.8-.8-.9-1.4-.8-2.6-1.7-5.1-2.5-7.6-.2-.7-.7-1.1-1.4-1.3-1.3-.3-2.7-.6-4-.9-.8-.2-1.4 0-1.9.6-1.9 2-3.9 4-5.8 5.9-.7.7-1.1.7-1.9.3-2-1.1-4.1-2.3-6.1-3.4-.9-.5-1.1-.9-.8-1.9l2.1-8.1c.2-.7 0-1.3-.5-1.8-1-1-2-2.1-3-3.1-.5-.5-1-.7-1.7-.5l-8.1 1.8c-1 .2-1.3 0-1.7-.8-1.1-2.1-2.1-4.1-3.2-6.2-.5-1-.4-1.3.3-2 2-1.9 4.1-3.8 6.1-5.7.5-.4.7-.9.6-1.5-.2-1.4-.5-2.8-.8-4.2-.1-.6-.5-1-1.1-1.2-.7-.3-1.4-.5-2.2-.8-2.3-.8-4.5-1.7-6.8-2.6v-1.7c0-.2.1-.3.1-.5.2-2 .4-4 .7-6 .2-1.3.4-1.5 1.6-1.7 2.7-.5 5.5-1 8.2-1.5.7-.1 1.1-.5 1.4-1.1.4-1 .8-2 1.3-3 .4-.8.3-1.4-.3-2.1-1.7-2.2-3.3-4.4-5-6.6-.5-.7-.5-1.1 0-1.8 1.6-2 3.2-4 4.8-5.9.6-.8 1-.9 1.9-.5 2.6 1.1 5.2 2.1 7.7 3.2.7.3 1.4.3 2-.2.7-.5 1.4-1 2.1-1.4.7-.4 1-1 .9-1.8-.2-2.7-.4-5.5-.6-8.2-.1-1 .1-1.3 1.1-1.6 2.5-.8 4.9-1.7 7.4-2.5 1-.3 1.3-.2 1.9.6l4.8 6.9c.4.6 1 .9 1.7.9.7-.1 1.5-.1 2.2-.1.8 0 1.2-.3 1.6-1 1.3-2.4 2.6-4.9 3.9-7.3.4-.6.8-.9 1.1-1.2zm-6.2 19c-14.9 0-27 12.1-27 27s12.1 27 27 27 27-12.1 27-27-12.1-27-27-27z"/></mask><path class="st0" d="M160.1 100.5c-.1 4.7.1 9.3.1 14 0 16.6-.1 33.3-.1 49.9 0 .2 0 .3-.1.6H23.1v-1.3-64.9c0-.8.3-1.2.9-1.8 3.9-3.3 7.7-6.6 11.5-10 18.5-16.4 37-32.8 55.6-49.3.2-.2.4-.3.6-.5 3 2.6 5.9 5.2 8.9 7.9" mask="url(#a)"/><path class="st0" d="M91.8 28.6c-3.3 2.9-6.5 5.8-9.8 8.7-20.8 18.4-41.6 36.9-62.4 55.3-5.1 4.5-12.2 4.1-16.6-.9-4.5-5.2-4-12.2 1.1-16.8 9.4-8.3 18.9-16.7 28.3-25.1.7-.6 1-1.2 1-2.1V20v-1.4h21v11.7c.5-.5.9-.7 1.2-1C65 21 74.4 12.6 83.9 4.2 88.8-.1 95-.1 99.8 4.2c3 2.6 5.9 5.3 8.9 7.9 17 15.1 34 30.1 51 45.2 6.6 5.9 13.2 11.7 19.8 17.6 5.2 4.6 5.7 11.5 1.2 16.8-4.4 5-11.5 5.5-16.6 1-13.7-12.1-27.4-24.2-41-36.4-10.1-8.9-20.2-17.9-30.3-26.8-.3-.3-.7-.6-1-.9z"/></svg>