<?xml version="1.0" encoding="utf-8"?>
<?xml-stylesheet href="../css/device-air-conditioner.css"?>
<!-- Generator: Adobe Illustrator 19.0.1, SVG Export Plug-In . SVG Version: 6.00 Build 0)  -->
<svg version="1.1" id="Layer_1" xmlns="http://www.w3.org/2000/svg" xmlns:xlink="http://www.w3.org/1999/xlink" x="0px" y="0px"
	 viewBox="0 0 255 51" style="enable-background:new 0 0 255 51;" xml:space="preserve">
<g id="d-0">
	<path class="screen-st0 p-0" d="M11.6,9.5h8.5l3.7-3.7C23.2,5.3,22.3,5,21.5,5H10.6c-1,0-1.8,0.4-2.5,0.9L11.6,9.5z"/>
	<path class="screen-st0 p-1" d="M18.7,41.5h-8.5l-3.7,3.7C7.2,45.6,8.1,46,9,46h10.9c0.9,0,1.8-0.3,2.5-0.9L18.7,41.5z"/>
	<path class="screen-st0 p-2" d="M7.6,26.2l-1.9,1.6L5,41.8c0,1,0.3,1.9,0.8,2.6l3.7-3.7l0.5-12.4L7.6,26.2z"/>
	<path class="screen-st0 p-3" d="M7.6,24.9l2.8-2.4l0.5-12.3L7.3,6.6C6.8,7.3,6.5,8.1,6.5,8.9L5.8,23.4L7.6,24.9z"/>
	<path class="screen-st0 p-4" d="M22.8,24.7l2-1.7l0.6-13.9c0-1-0.3-1.9-0.9-2.6l-3.7,3.7l-0.5,12.3L22.8,24.7z"/>
	<path class="screen-st0 p-5" d="M22.8,26l-2.8,2.3l-0.6,12.5l3.5,3.5c0.5-0.7,0.9-1.5,0.9-2.4l0.6-14.5L22.8,26z"/>
	<polygon class="screen-st0 p-6" points="22.1,25.3 19.5,23.2 11.1,23.2 8.3,25.5 10.9,27.7 19.3,27.7 	"/>
</g>
<g class="d-1">
	<path class="screen-st0 p-0" d="M36.6,10.2h8.5l3.7-3.7c-0.7-0.5-1.5-0.8-2.4-0.8H35.6c-1,0-1.8,0.4-2.5,0.9L36.6,10.2z"/>
	<path class="screen-st0 p-1" d="M43.7,42.2h-8.5l-3.7,3.7c0.7,0.5,1.5,0.8,2.4,0.8h10.9c0.9,0,1.8-0.3,2.5-0.9L43.7,42.2z"/>
	<path class="screen-st0 p-2" d="M32.6,26.9l-1.9,1.6l-0.6,14c0,1,0.3,1.9,0.8,2.6l3.7-3.7L35.1,29L32.6,26.9z"/>
	<path class="screen-st0 p-3" d="M32.6,25.6l2.8-2.4l0.5-12.3l-3.6-3.6c-0.5,0.7-0.8,1.5-0.9,2.3l-0.6,14.5L32.6,25.6z"/>
	<path class="screen-st1 p-4" d="M47.8,25.4l2-1.7l0.6-13.9c0-1-0.3-1.9-0.9-2.6l-3.7,3.7l-0.5,12.3L47.8,25.4z"/>
	<path class="screen-st1 p-5" d="M47.8,26.7L45.1,29l-0.6,12.5l3.5,3.5c0.5-0.7,0.9-1.5,0.9-2.4l0.6-14.5L47.8,26.7z"/>
	<polygon class="screen-st0 p-6" points="47.1,26.1 44.5,23.9 36.1,23.9 33.3,26.2 35.9,28.4 44.3,28.4 	"/>
</g>
<g class="d-2">
	<path class="screen-st1 p-0" d="M61.6,9.6h8.5l3.7-3.7c-0.7-0.5-1.5-0.8-2.4-0.8H60.6c-1,0-1.8,0.4-2.5,0.9L61.6,9.6z"/>
	<path class="screen-st1 p-1" d="M68.7,41.6h-8.5l-3.7,3.7c0.7,0.5,1.5,0.8,2.4,0.8h10.9c0.9,0,1.8-0.3,2.5-0.9L68.7,41.6z"/>
	<path class="screen-st1 p-2" d="M57.6,26.3l-1.9,1.6l-0.6,14c0,1,0.3,1.9,0.8,2.6l3.7-3.7l0.5-12.4L57.6,26.3z"/>
	<path class="screen-st1 p-3" d="M57.6,25l2.8-2.4l0.5-12.3l-3.6-3.6c-0.5,0.7-0.8,1.5-0.9,2.3l-0.6,14.5L57.6,25z"/>
	<path class="screen-st1 p-4" d="M72.8,24.8l2-1.7l0.6-13.9c0-1-0.3-1.9-0.9-2.6l-3.7,3.7l-0.5,12.3L72.8,24.8z"/>
	<path class="screen-st1 p-5" d="M72.8,26.1l-2.8,2.3l-0.6,12.5l3.5,3.5c0.5-0.7,0.9-1.5,0.9-2.4l0.6-14.5L72.8,26.1z"/>
	<polygon class="screen-st1 p-6" points="72.1,25.5 69.5,23.3 61.1,23.3 58.3,25.6 60.9,27.8 69.3,27.8 	"/>
</g>
<g class="d-3">
	<path class="screen-st1 p-0" d="M86.6,9.5h8.5l3.7-3.7C98.2,5.3,97.3,5,96.5,5H85.6c-1,0-1.8,0.4-2.5,0.9L86.6,9.5z"/>
	<path class="screen-st1 p-1" d="M93.7,41.5h-8.5l-3.7,3.7c0.7,0.5,1.5,0.8,2.4,0.8h10.9c0.9,0,1.8-0.3,2.5-0.9L93.7,41.5z"/>
	<path class="screen-st1 p-2" d="M82.6,26.2l-1.9,1.6l-0.6,14c0,1,0.3,1.9,0.8,2.6l3.7-3.7l0.5-12.4L82.6,26.2z"/>
	<path class="screen-st1 p-3" d="M82.6,24.9l2.8-2.4l0.5-12.3l-3.6-3.6c-0.5,0.7-0.8,1.5-0.9,2.3l-0.6,14.5L82.6,24.9z"/>
	<path class="screen-st0 p-4" d="M97.8,24.7l2-1.7l0.6-13.9c0-1-0.3-1.9-0.9-2.6l-3.7,3.7l-0.5,12.3L97.8,24.7z"/>
	<path class="screen-st0 p-5" d="M97.8,26l-2.8,2.3l-0.6,12.5l3.5,3.5c0.5-0.7,0.9-1.5,0.9-2.4l0.6-14.5L97.8,26z"/>
	<polygon class="screen-st0 p-6" points="97.1,25.3 94.5,23.2 86.1,23.2 83.3,25.5 85.9,27.7 94.3,27.7 	"/>
</g>
<g class="d-4">
	<path class="screen-st0 p-0" d="M111.6,9.5h8.5l3.7-3.7c-0.7-0.5-1.5-0.8-2.4-0.8h-10.9c-1,0-1.8,0.4-2.5,0.9L111.6,9.5z"/>
	<path class="screen-st0 p-1" d="M118.7,41.5h-8.5l-3.7,3.7c0.7,0.5,1.5,0.8,2.4,0.8h10.9c0.9,0,1.8-0.3,2.5-0.9L118.7,41.5z"/>
	<path class="screen-st0 p-2" d="M107.6,26.2l-1.9,1.6l-0.6,14c0,1,0.3,1.9,0.8,2.6l3.7-3.7l0.5-12.4L107.6,26.2z"/>
	<path class="screen-st0 p-3" d="M107.6,24.9l2.8-2.4l0.5-12.3l-3.6-3.6c-0.5,0.7-0.8,1.5-0.9,2.3l-0.6,14.5L107.6,24.9z"/>
	<path class="screen-st0 p-4" d="M122.8,24.7l2-1.7l0.6-13.9c0-1-0.3-1.9-0.9-2.6l-3.7,3.7l-0.5,12.3L122.8,24.7z"/>
	<path class="screen-st0 p-5" d="M122.8,26l-2.8,2.3l-0.6,12.5l3.5,3.5c0.5-0.7,0.9-1.5,0.9-2.4l0.6-14.5L122.8,26z"/>
	<polygon class="screen-st0 p-6" points="122.1,25.3 119.5,23.2 111.1,23.2 108.3,25.5 110.9,27.7 119.3,27.7 	"/>
</g>
<g class="d-5">
	<path class="screen-st1 p-0" d="M136.6,9.5h8.5l3.7-3.7c-0.7-0.5-1.5-0.8-2.4-0.8h-10.9c-1,0-1.8,0.4-2.5,0.9L136.6,9.5z"/>
	<path class="screen-st1 p-1" d="M143.7,41.5h-8.5l-3.7,3.7c0.7,0.5,1.5,0.8,2.4,0.8h10.9c0.9,0,1.8-0.3,2.5-0.9L143.7,41.5z"/>
	<path class="screen-st1 p-2" d="M132.6,26.2l-1.9,1.6l-0.6,14c0,1,0.3,1.9,0.8,2.6l3.7-3.7l0.5-12.4L132.6,26.2z"/>
	<path class="screen-st1 p-3" d="M132.6,24.9l2.8-2.4l0.5-12.3l-3.6-3.6c-0.5,0.7-0.8,1.5-0.9,2.3l-0.6,14.5L132.6,24.9z"/>
	<path class="screen-st1 p-4" d="M147.8,24.7l2-1.7l0.6-13.9c0-1-0.3-1.9-0.9-2.6l-3.7,3.7l-0.5,12.3L147.8,24.7z"/>
	<path class="screen-st1 p-5" d="M147.8,26l-2.8,2.3l-0.6,12.5l3.5,3.5c0.5-0.7,0.9-1.5,0.9-2.4l0.6-14.5L147.8,26z"/>
	<polygon class="screen-st0 p-6" points="147.1,25.3 144.5,23.2 136.1,23.2 133.3,25.5 135.9,27.7 144.3,27.7 	"/>
</g>
<g class="d-6">
	<path class="screen-st0 p-0" d="M161.6,9.5h8.5l3.7-3.7c-0.7-0.5-1.5-0.8-2.4-0.8h-10.9c-1,0-1.8,0.4-2.5,0.9L161.6,9.5z"/>
	<path class="screen-st0 p-1" d="M168.7,41.5h-8.5l-3.7,3.7c0.7,0.5,1.5,0.8,2.4,0.8h10.9c0.9,0,1.8-0.3,2.5-0.9L168.7,41.5z"/>
	<path class="screen-st0 p-2" d="M157.6,26.2l-1.9,1.6l-0.6,14c0,1,0.3,1.9,0.8,2.6l3.7-3.7l0.5-12.4L157.6,26.2z"/>
	<path class="screen-st1 p-3" d="M157.6,24.9l2.8-2.4l0.5-12.3l-3.6-3.6c-0.5,0.7-0.8,1.5-0.9,2.3l-0.6,14.5L157.6,24.9z"/>
	<path class="screen-st1 p-4" d="M172.8,24.7l2-1.7l0.6-13.9c0-1-0.3-1.9-0.9-2.6l-3.7,3.7l-0.5,12.3L172.8,24.7z"/>
	<path class="screen-st1 p-5" d="M172.8,26l-2.8,2.3l-0.6,12.5l3.5,3.5c0.5-0.7,0.9-1.5,0.9-2.4l0.6-14.5L172.8,26z"/>
	<polygon class="screen-st1 p-6" points="172.1,25.3 169.5,23.2 161.1,23.2 158.3,25.5 160.9,27.7 169.3,27.7 	"/>
</g>
<g class="d-7">
	<path class="screen-st0 p-0" d="M186.6,9.5h8.5l3.7-3.7c-0.7-0.5-1.5-0.8-2.4-0.8h-10.9c-1,0-1.8,0.4-2.5,0.9L186.6,9.5z"/>
	<path class="screen-st0 p-1" d="M193.7,41.5h-8.5l-3.7,3.7c0.7,0.5,1.5,0.8,2.4,0.8h10.9c0.9,0,1.8-0.3,2.5-0.9L193.7,41.5z"/>
	<path class="screen-st0 p-2" d="M182.6,26.2l-1.9,1.6l-0.6,14c0,1,0.3,1.9,0.8,2.6l3.7-3.7l0.5-12.4L182.6,26.2z"/>
	<path class="screen-st0 p-3" d="M182.6,24.9l2.8-2.4l0.5-12.3l-3.6-3.6c-0.5,0.7-0.8,1.5-0.9,2.3l-0.6,14.5L182.6,24.9z"/>
	<path class="screen-st0 p-4" d="M197.8,24.7l2-1.7l0.6-13.9c0-1-0.3-1.9-0.9-2.6l-3.7,3.7l-0.5,12.3L197.8,24.7z"/>
	<path class="screen-st0 p-5" d="M197.8,26l-2.8,2.3l-0.6,12.5l3.5,3.5c0.5-0.7,0.9-1.5,0.9-2.4l0.6-14.5L197.8,26z"/>
	<polygon class="screen-st0 p-6" points="197.1,25.3 194.5,23.2 186.1,23.2 183.3,25.5 185.9,27.7 194.3,27.7 	"/>
</g>
<g class="d-8">
	<path class="screen-st0 p-0" d="M211.6,9.5h8.5l3.7-3.7c-0.7-0.5-1.5-0.8-2.4-0.8h-10.9c-1,0-1.8,0.4-2.5,0.9L211.6,9.5z"/>
	<path class="screen-st0 p-1" d="M218.7,41.5h-8.5l-3.7,3.7c0.7,0.5,1.5,0.8,2.4,0.8h10.9c0.9,0,1.8-0.3,2.5-0.9L218.7,41.5z"/>
	<path class="screen-st0 p-2" d="M207.6,26.2l-1.9,1.6l-0.6,14c0,1,0.3,1.9,0.8,2.6l3.7-3.7l0.5-12.4L207.6,26.2z"/>
	<path class="screen-st1 p-3" d="M207.6,24.9l2.8-2.4l0.5-12.3l-3.6-3.6c-0.5,0.7-0.8,1.5-0.9,2.3l-0.6,14.5L207.6,24.9z"/>
	<path class="screen-st1 p-4" d="M222.8,24.7l2-1.7l0.6-13.9c0-1-0.3-1.9-0.9-2.6l-3.7,3.7l-0.5,12.3L222.8,24.7z"/>
	<path class="screen-st1 p-5" d="M222.8,26l-2.8,2.3l-0.6,12.5l3.5,3.5c0.5-0.7,0.9-1.5,0.9-2.4l0.6-14.5L222.8,26z"/>
	<polygon class="screen-st1 p-6" points="222.1,25.3 219.5,23.2 211.1,23.2 208.3,25.5 210.9,27.7 219.3,27.7 	"/>
</g>
<g class="d-9">
	<path class="screen-st1 p-0" d="M236.6,9.5h8.5l3.7-3.7c-0.7-0.5-1.5-0.8-2.4-0.8h-10.9c-1,0-1.8,0.4-2.5,0.9L236.6,9.5z"/>
	<path class="screen-st1 p-1" d="M243.7,41.5h-8.5l-3.7,3.7c0.7,0.5,1.5,0.8,2.4,0.8h10.9c0.9,0,1.8-0.3,2.5-0.9L243.7,41.5z"/>
	<path class="screen-st1 p-2" d="M232.6,26.2l-1.9,1.6l-0.6,14c0,1,0.3,1.9,0.8,2.6l3.7-3.7l0.5-12.4L232.6,26.2z"/>
	<path class="screen-st1 p-3" d="M232.6,24.9l2.8-2.4l0.5-12.3l-3.6-3.6c-0.5,0.7-0.8,1.5-0.9,2.3l-0.6,14.5L232.6,24.9z"/>
	<path class="screen-st1 p-4" d="M247.8,24.7l2-1.7l0.6-13.9c0-1-0.3-1.9-0.9-2.6l-3.7,3.7l-0.5,12.3L247.8,24.7z"/>
	<path class="screen-st1 p-5" d="M247.8,26l-2.8,2.3l-0.6,12.5l3.5,3.5c0.5-0.7,0.9-1.5,0.9-2.4l0.6-14.5L247.8,26z"/>
	<polygon class="screen-st0 p-6" points="247.1,25.3 244.5,23.2 236.1,23.2 233.3,25.5 235.9,27.7 244.3,27.7 	"/>
</g>
</svg>
